<svg xmlns="http://www.w3.org/2000/svg" xmlns:xlink="http://www.w3.org/1999/xlink" preserveAspectRatio="xMidYMid" width="188" height="26" viewBox="0 0 188 26">
  <defs>
    <style>
      .cls-1 {
        fill: #18212c;
      }

      .cls-1, .cls-2 {
        fill-rule: evenodd;
      }

      .cls-2 {
        fill: #e53632;
      }
    </style>
  </defs>
  <g>
    <path d="M182.287,21.264 C180.751,21.264 179.407,20.592 178.711,19.440 L178.663,19.440 L178.663,25.752 L176.575,25.752 L176.575,13.175 C176.575,11.687 176.527,10.487 176.479,9.383 L178.375,9.383 L178.471,11.375 L178.519,11.375 C179.383,9.959 180.751,9.119 182.647,9.119 C185.456,9.119 187.568,11.495 187.568,15.023 C187.568,19.200 185.024,21.264 182.287,21.264 ZM181.999,10.799 C180.559,10.799 179.215,11.831 178.807,13.415 C178.735,13.679 178.663,13.991 178.663,14.279 L178.663,16.272 C178.663,16.584 178.711,16.872 178.759,17.136 C179.143,18.600 180.415,19.608 181.927,19.608 C184.159,19.608 185.456,17.784 185.456,15.119 C185.456,12.791 184.231,10.799 181.999,10.799 ZM171.080,14.423 C171.080,12.191 170.264,10.847 168.560,10.847 C167.360,10.847 166.424,11.735 166.064,12.767 C165.968,13.055 165.896,13.439 165.896,13.823 L165.896,21.000 L163.831,21.000 L163.831,14.039 C163.831,12.191 163.015,10.847 161.407,10.847 C160.087,10.847 159.127,11.903 158.791,12.959 C158.671,13.271 158.623,13.631 158.623,13.991 L158.623,21.000 L156.559,21.000 L156.559,12.527 C156.559,11.327 156.535,10.343 156.463,9.383 L158.311,9.383 L158.407,11.255 L158.479,11.255 C159.127,10.151 160.207,9.119 162.127,9.119 C163.711,9.119 164.912,10.079 165.416,11.447 L165.464,11.447 C165.824,10.799 166.280,10.295 166.760,9.935 C167.456,9.407 168.224,9.119 169.328,9.119 C170.864,9.119 173.144,10.127 173.144,14.159 L173.144,21.000 L171.080,21.000 L171.080,14.423 ZM151.255,19.536 L151.183,19.536 C150.535,20.448 149.287,21.264 147.631,21.264 C145.279,21.264 144.079,19.608 144.079,17.928 C144.079,15.119 146.575,13.583 151.063,13.607 L151.063,13.367 C151.063,12.407 150.799,10.679 148.423,10.679 C147.343,10.679 146.215,11.015 145.399,11.543 L144.919,10.151 C145.879,9.527 147.271,9.119 148.735,9.119 C152.288,9.119 153.152,11.543 153.152,13.871 L153.152,18.216 C153.152,19.224 153.200,20.208 153.344,21.000 L151.423,21.000 L151.255,19.536 ZM151.111,15.071 C148.807,15.023 146.191,15.432 146.191,17.688 C146.191,19.056 147.103,19.704 148.183,19.704 C149.695,19.704 150.655,18.744 150.991,17.760 C151.063,17.544 151.111,17.304 151.111,17.088 L151.111,15.071 ZM138.872,6.311 C135.079,6.311 132.559,8.735 132.559,12.983 C132.559,16.944 134.839,19.488 138.776,19.488 C140.048,19.488 141.344,19.224 142.184,18.816 L142.616,20.472 C141.848,20.856 140.312,21.240 138.344,21.240 C133.783,21.240 130.351,18.360 130.351,13.055 C130.351,7.991 133.783,4.559 138.800,4.559 C140.816,4.559 142.088,4.991 142.640,5.279 L142.136,6.983 C141.344,6.599 140.216,6.311 138.872,6.311 ZM124.327,13.704 C124.327,11.720 123.599,10.728 122.143,10.728 C121.423,10.728 120.795,10.988 120.259,11.508 C119.723,12.028 119.455,12.792 119.455,13.800 L119.455,21.000 L115.855,21.000 L115.855,8.088 L119.455,8.088 L119.455,9.528 C120.543,8.424 121.767,7.872 123.127,7.872 C124.487,7.872 125.627,8.352 126.547,9.312 C127.467,10.272 127.927,11.552 127.927,13.152 L127.927,21.000 L124.327,21.000 L124.327,13.704 ZM110.383,12.396 C109.855,13.156 109.591,14.160 109.591,15.408 L109.591,21.000 L105.991,21.000 L105.991,8.088 L109.591,8.088 L109.591,9.792 C110.055,9.264 110.635,8.816 111.331,8.448 C112.027,8.080 112.735,7.888 113.455,7.872 L113.479,11.256 L112.783,11.256 C111.711,11.256 110.911,11.636 110.383,12.396 ZM95.095,17.544 C95.719,17.992 96.423,18.216 97.207,18.216 C98.471,18.216 99.511,17.792 100.327,16.944 L102.343,19.128 C100.887,20.504 99.179,21.192 97.219,21.192 C95.259,21.192 93.639,20.588 92.359,19.380 C91.079,18.172 90.439,16.552 90.439,14.520 C90.439,12.488 91.091,10.872 92.395,9.672 C93.699,8.472 95.239,7.872 97.015,7.872 C98.791,7.872 100.299,8.408 101.539,9.480 C102.779,10.552 103.399,12.024 103.399,13.896 L103.399,15.816 L93.991,15.816 C94.103,16.520 94.471,17.096 95.095,17.544 ZM99.751,13.248 C99.671,12.480 99.383,11.888 98.887,11.472 C98.391,11.056 97.787,10.848 97.075,10.848 C96.363,10.848 95.711,11.064 95.119,11.496 C94.527,11.928 94.183,12.512 94.087,13.248 L99.751,13.248 ZM84.152,19.296 C83.144,20.560 81.875,21.192 80.348,21.192 C78.819,21.192 77.456,20.544 76.256,19.248 C75.056,17.952 74.456,16.344 74.456,14.424 C74.456,12.504 75.039,10.932 76.208,9.708 C77.375,8.484 78.743,7.872 80.312,7.872 C81.879,7.872 83.159,8.424 84.152,9.528 L84.152,3.192 L87.752,3.192 L87.752,21.000 L84.152,21.000 L84.152,19.296 ZM83.324,11.940 C82.739,11.244 82.023,10.896 81.176,10.896 C80.327,10.896 79.599,11.248 78.992,11.952 C78.383,12.656 78.080,13.528 78.080,14.568 C78.080,15.608 78.392,16.460 79.016,17.124 C79.640,17.788 80.367,18.120 81.200,18.120 C82.031,18.120 82.739,17.788 83.324,17.124 C83.907,16.460 84.200,15.604 84.200,14.556 C84.200,13.508 83.907,12.636 83.324,11.940 ZM65.684,21.192 C63.724,21.192 62.096,20.552 60.800,19.272 C59.504,17.992 58.856,16.416 58.856,14.544 C58.856,12.672 59.504,11.092 60.800,9.804 C62.096,8.516 63.724,7.872 65.684,7.872 C67.644,7.872 69.272,8.516 70.568,9.804 C71.864,11.092 72.512,12.672 72.512,14.544 C72.512,16.416 71.864,17.992 70.568,19.272 C69.272,20.552 67.644,21.192 65.684,21.192 ZM67.988,11.952 C67.388,11.280 66.620,10.944 65.684,10.944 C64.748,10.944 63.980,11.280 63.380,11.952 C62.780,12.624 62.480,13.488 62.480,14.544 C62.480,15.600 62.780,16.460 63.380,17.124 C63.980,17.788 64.748,18.120 65.684,18.120 C66.620,18.120 67.388,17.788 67.988,17.124 C68.588,16.460 68.888,15.600 68.888,14.544 C68.888,13.488 68.588,12.624 67.988,11.952 ZM52.088,10.440 L47.552,19.608 L45.320,19.608 L40.808,10.440 L40.808,21.000 L37.064,21.000 L37.064,4.224 L42.128,4.224 L46.448,13.440 L50.792,4.224 L55.832,4.224 L55.832,21.000 L52.088,21.000 L52.088,10.440 Z" class="cls-1"/>
    <path d="M23.429,15.322 C23.391,15.349 23.355,15.371 23.318,15.393 L23.259,15.429 C23.147,15.497 23.024,15.561 22.905,15.616 C22.838,15.647 22.775,15.676 22.708,15.701 C22.590,15.746 22.461,15.784 22.297,15.823 C22.264,15.831 22.238,15.839 22.212,15.847 C22.193,15.852 22.176,15.858 22.158,15.862 L21.411,15.914 C21.302,15.909 21.184,15.893 21.069,15.878 C21.030,15.873 21.000,15.871 20.970,15.870 C20.959,15.869 20.947,15.869 20.936,15.868 L20.872,15.861 C20.816,15.859 20.761,15.858 20.706,15.858 C19.418,15.858 18.147,16.411 17.217,17.375 C16.291,18.336 15.781,19.629 15.819,20.923 L15.820,20.961 L15.827,20.998 C15.835,21.036 15.836,21.076 15.839,21.114 C15.841,21.154 15.844,21.193 15.848,21.231 C15.851,21.263 15.856,21.304 15.860,21.344 C15.867,21.401 15.874,21.459 15.875,21.516 L15.820,22.260 C15.816,22.276 15.787,22.376 15.787,22.376 C15.751,22.534 15.711,22.672 15.664,22.802 C15.641,22.863 15.615,22.921 15.588,22.983 L15.578,23.004 C15.523,23.125 15.460,23.245 15.390,23.362 C15.356,23.420 15.322,23.477 15.286,23.530 C15.154,23.723 15.030,23.876 14.898,24.011 C14.266,24.648 13.423,25.000 12.526,25.000 C11.627,25.000 10.783,24.647 10.147,24.007 C9.512,23.367 9.163,22.517 9.163,21.611 C9.162,20.707 9.511,19.856 10.146,19.218 C10.275,19.087 10.422,18.966 10.623,18.826 C10.673,18.792 10.727,18.759 10.783,18.726 C10.907,18.652 11.025,18.589 11.149,18.532 C11.214,18.502 11.278,18.472 11.344,18.447 C11.468,18.401 11.604,18.360 11.749,18.328 C11.749,18.328 11.867,18.294 11.882,18.290 L12.642,18.234 C12.732,18.238 12.829,18.251 12.930,18.264 L12.986,18.272 C13.023,18.275 13.055,18.279 13.086,18.279 C13.098,18.280 13.111,18.280 13.123,18.281 L13.147,18.284 L13.179,18.288 C13.234,18.289 13.291,18.291 13.346,18.291 C14.634,18.290 15.905,17.737 16.833,16.774 C17.760,15.814 18.270,14.520 18.234,13.226 L18.229,13.068 L18.215,13.051 C18.214,13.046 18.214,13.039 18.214,13.034 C18.212,12.997 18.210,12.960 18.206,12.922 L18.193,12.814 C18.187,12.754 18.179,12.695 18.177,12.635 L18.229,11.902 C18.233,11.884 18.259,11.793 18.265,11.766 C18.308,11.591 18.346,11.463 18.388,11.349 C18.412,11.281 18.441,11.218 18.471,11.153 C18.525,11.034 18.588,10.914 18.665,10.782 L18.679,10.758 C18.705,10.713 18.730,10.669 18.761,10.626 C18.899,10.424 19.021,10.272 19.150,10.142 C19.785,9.501 20.631,9.148 21.529,9.148 C22.427,9.148 23.270,9.501 23.905,10.140 C25.215,11.461 25.215,13.612 23.905,14.934 C23.778,15.061 23.627,15.185 23.429,15.322 ZM21.472,6.834 C20.573,6.834 19.729,6.481 19.094,5.841 C17.784,4.520 17.783,2.370 19.092,1.050 C19.728,0.410 20.572,0.057 21.471,0.057 C22.369,0.057 23.213,0.409 23.848,1.049 C25.158,2.370 25.158,4.520 23.848,5.843 C23.214,6.481 22.369,6.834 21.472,6.834 ZM14.355,15.320 C14.299,15.358 14.246,15.390 14.193,15.422 C14.072,15.495 13.950,15.560 13.828,15.616 C13.763,15.646 13.697,15.676 13.634,15.700 C13.505,15.748 13.369,15.789 13.225,15.821 L13.145,15.844 C13.127,15.849 13.109,15.855 13.091,15.860 L12.335,15.914 C12.246,15.910 12.154,15.898 12.055,15.885 L11.988,15.877 C11.966,15.873 11.930,15.871 11.895,15.869 L11.868,15.866 L11.830,15.859 L11.800,15.859 C11.744,15.857 11.690,15.856 11.636,15.856 C10.346,15.856 9.073,16.409 8.143,17.374 C7.216,18.335 6.706,19.629 6.742,20.922 L6.743,20.960 L6.750,20.999 C6.757,21.035 6.759,21.072 6.762,21.108 C6.765,21.152 6.769,21.195 6.774,21.238 C6.775,21.264 6.781,21.310 6.786,21.356 C6.792,21.408 6.799,21.458 6.799,21.510 L6.799,21.529 L6.745,22.254 C6.741,22.269 6.717,22.353 6.710,22.379 C6.674,22.535 6.633,22.674 6.587,22.798 C6.562,22.868 6.536,22.928 6.507,22.990 C6.448,23.119 6.385,23.242 6.313,23.367 C6.281,23.419 6.244,23.479 6.206,23.537 C6.081,23.720 5.957,23.873 5.824,24.008 C5.191,24.647 4.347,25.000 3.449,25.000 L3.448,25.000 C2.550,25.000 1.705,24.647 1.069,24.007 C0.435,23.367 0.085,22.517 0.086,21.612 C0.086,20.707 0.436,19.856 1.072,19.216 C1.204,19.081 1.354,18.958 1.545,18.828 C1.602,18.788 1.655,18.756 1.710,18.722 C1.834,18.650 1.958,18.585 2.074,18.531 C2.137,18.503 2.202,18.473 2.270,18.447 C2.391,18.402 2.526,18.361 2.680,18.325 C2.710,18.316 2.738,18.309 2.765,18.301 C2.782,18.296 2.799,18.291 2.817,18.286 L3.565,18.235 C3.660,18.239 3.761,18.251 3.870,18.265 L3.912,18.271 C3.938,18.274 3.972,18.277 4.007,18.279 L4.037,18.281 L4.071,18.288 L4.101,18.288 C4.155,18.290 4.210,18.291 4.264,18.291 C5.554,18.291 6.828,17.737 7.758,16.773 C8.684,15.812 9.195,14.520 9.158,13.226 L9.157,13.188 L9.150,13.148 C9.143,13.112 9.141,13.075 9.139,13.039 C9.135,12.995 9.132,12.952 9.127,12.909 L9.118,12.833 C9.111,12.768 9.104,12.704 9.099,12.639 L9.157,11.882 C9.160,11.863 9.167,11.846 9.172,11.828 L9.186,11.781 C9.220,11.637 9.257,11.494 9.311,11.355 C9.339,11.275 9.365,11.217 9.394,11.157 C9.454,11.025 9.516,10.905 9.589,10.781 C9.620,10.728 9.651,10.674 9.688,10.621 C9.823,10.422 9.947,10.269 10.075,10.140 C10.710,9.500 11.554,9.148 12.453,9.148 C13.351,9.148 14.196,9.500 14.831,10.139 C16.141,11.460 16.140,13.610 14.828,14.932 C14.696,15.066 14.546,15.188 14.355,15.320 ZM14.355,6.171 C14.304,6.208 14.259,6.234 14.213,6.261 L14.188,6.276 C14.065,6.350 13.943,6.415 13.829,6.468 C13.761,6.499 13.698,6.528 13.633,6.552 C13.507,6.600 13.373,6.639 13.222,6.675 C13.191,6.682 13.162,6.691 13.133,6.699 C13.116,6.703 13.098,6.709 13.081,6.713 L12.336,6.766 C12.241,6.761 12.140,6.749 12.034,6.735 L11.989,6.729 C11.954,6.725 11.923,6.723 11.892,6.721 C11.879,6.721 11.867,6.721 11.854,6.719 L11.829,6.715 L11.797,6.713 C11.741,6.711 11.686,6.710 11.630,6.710 C10.343,6.710 9.071,7.262 8.142,8.226 C7.216,9.187 6.706,10.481 6.742,11.775 L6.743,11.813 L6.750,11.850 C6.758,11.888 6.759,11.927 6.762,11.966 C6.764,12.005 6.768,12.044 6.772,12.084 C6.775,12.116 6.780,12.156 6.784,12.196 C6.790,12.253 6.798,12.308 6.799,12.364 L6.745,13.103 C6.741,13.122 6.735,13.141 6.729,13.161 L6.710,13.227 C6.673,13.393 6.633,13.530 6.588,13.653 C6.565,13.717 6.534,13.783 6.503,13.851 C6.448,13.972 6.385,14.093 6.312,14.215 C6.278,14.274 6.245,14.329 6.210,14.381 C6.072,14.583 5.954,14.731 5.824,14.860 C5.189,15.500 4.346,15.851 3.449,15.851 C2.551,15.851 1.707,15.499 1.072,14.860 C0.437,14.219 0.087,13.368 0.086,12.463 C0.086,11.558 0.435,10.708 1.069,10.069 C1.200,9.938 1.351,9.814 1.546,9.679 C1.597,9.644 1.654,9.609 1.712,9.574 C1.828,9.505 1.946,9.441 2.073,9.382 C2.138,9.353 2.203,9.323 2.271,9.298 C2.395,9.252 2.531,9.211 2.673,9.179 L2.759,9.155 C2.775,9.151 2.790,9.145 2.805,9.142 L3.566,9.086 C3.665,9.091 3.772,9.105 3.884,9.120 L3.907,9.123 C3.946,9.127 3.976,9.129 4.007,9.130 C4.018,9.131 4.029,9.131 4.040,9.133 L4.073,9.138 L4.103,9.140 C4.160,9.141 4.215,9.142 4.271,9.142 C5.558,9.142 6.829,8.589 7.758,7.625 C8.684,6.664 9.194,5.371 9.157,4.077 L9.156,4.040 L9.149,4.003 C9.141,3.962 9.140,3.920 9.137,3.878 C9.135,3.844 9.133,3.810 9.129,3.775 L9.118,3.670 C9.110,3.608 9.102,3.545 9.101,3.482 L9.151,2.770 L9.156,2.754 L9.156,2.740 C9.160,2.724 9.188,2.629 9.188,2.629 C9.230,2.447 9.268,2.315 9.311,2.199 C9.335,2.135 9.365,2.071 9.395,2.005 C9.449,1.883 9.514,1.760 9.588,1.634 L9.599,1.615 C9.628,1.566 9.657,1.517 9.690,1.469 C9.823,1.274 9.945,1.121 10.073,0.993 C10.709,0.353 11.553,-0.000 12.452,-0.000 C13.350,-0.000 14.195,0.352 14.830,0.992 C16.140,2.313 16.139,4.464 14.828,5.784 C14.699,5.916 14.544,6.042 14.355,6.171 ZM3.361,6.933 C2.463,6.933 1.618,6.580 0.983,5.940 C0.348,5.300 -0.002,4.450 -0.002,3.544 C-0.002,2.639 0.347,1.789 0.981,1.150 C1.617,0.509 2.462,0.156 3.360,0.156 C4.258,0.156 5.102,0.509 5.736,1.148 C6.371,1.788 6.721,2.640 6.721,3.545 C6.721,4.450 6.371,5.301 5.736,5.941 C5.102,6.581 4.258,6.933 3.361,6.933 ZM21.621,18.224 C22.519,18.224 23.363,18.576 23.997,19.215 C25.308,20.537 25.308,22.688 23.997,24.009 C23.363,24.648 22.519,25.000 21.622,25.000 C20.724,25.000 19.879,24.647 19.244,24.007 C18.609,23.368 18.259,22.517 18.259,21.611 C18.259,20.707 18.609,19.856 19.243,19.217 C19.878,18.577 20.723,18.224 21.621,18.224 Z" class="cls-2"/>
  </g>
</svg>
